# xmcd
#
# Track frame offsets: 
#        150
#        25502
#        34502
#        46869
#        60626
#        82147
#        102699
#        120135
#        129890
#        141936
#        158130
#        179603
#        192665
#        203912
#        218299
#        228176
#        239193
#        254594
#        258783
#        264932
#        284017
#        304723
#        311128
#        324656
#
# Disc length: 4605 seconds
#
# Revision: 0
# Processed by: cddbd v1.5.2PL0 Copyright (c) Steve Scherf et al.
# Submitted via: ExactAudioCopyFreeDBPlugin 1.0
#
DISCID=5a11fb18
DTITLE=Florian Boesch (bar) and Malcolm Martineau (piano) - Schubert - W
DTITLE=interreise (Onyx)
DYEAR=2011
DGENRE=Classical
TTITLE0=Gute Nacht
TTITLE1=Die Wetterfahne
TTITLE2=Gefror'ne Tränen
TTITLE3=Erstarrung
TTITLE4=Der Lindenbaum
TTITLE5=Wasserflut
TTITLE6=Auf Dem Flusse
TTITLE7=Rückblick
TTITLE8=Irrlicht
TTITLE9=Rast
TTITLE10=Frühlingstraum
TTITLE11=Einsamkeit
TTITLE12=Die Post
TTITLE13=Der Greise Kopf
TTITLE14=Die Krähe
TTITLE15=Letzte Hoffnung
TTITLE16=Im Dorfe
TTITLE17=Der Stürmische Morgen
TTITLE18=Täuschung
TTITLE19=Der Wegweiser
TTITLE20=Das Wirtshaus
TTITLE21=Mut!
TTITLE22=Die Nebensonnen
TTITLE23=Der Leiermann
EXTD=
EXTT0=
EXTT1=
EXTT2=
EXTT3=
EXTT4=
EXTT5=
EXTT6=
EXTT7=
EXTT8=
EXTT9=
EXTT10=
EXTT11=
EXTT12=
EXTT13=
EXTT14=
EXTT15=
EXTT16=
EXTT17=
EXTT18=
EXTT19=
EXTT20=
EXTT21=
EXTT22=
EXTT23=
PLAYORDER=
